<?xml version="1.0" encoding="UTF-8"?>
<svg version="1.1" xmlns="http://www.w3.org/2000/svg" width="361" height="360">
<path d="M0 0 C1.58206057 0.00667536 3.16410534 0.0186375 4.74609375 0.03515625 C5.55240234 0.03966797 6.35871094 0.04417969 7.18945312 0.04882812 C9.18753131 0.06065107 11.18557158 0.07858711 13.18359375 0.09765625 C17.17296393 7.76855725 20.68903261 15.62617811 24.11499023 23.55957031 C25.00742108 25.62385756 25.90680873 27.68502355 26.80664062 29.74609375 C27.37671866 31.06101739 27.94639547 32.37611507 28.515625 33.69140625 C29.02843018 34.87412109 29.54123535 36.05683594 30.06958008 37.27539062 C31.18359375 40.09765625 31.18359375 40.09765625 31.18359375 42.09765625 C31.84359375 42.09765625 32.50359375 42.09765625 33.18359375 42.09765625 C33.53164062 40.95296875 33.8796875 39.80828125 34.23828125 38.62890625 C36.50162842 31.84152439 39.45052247 25.34157526 42.33642578 18.80175781 C43.31771261 16.57698195 44.29208025 14.34926684 45.265625 12.12109375 C45.88631846 10.7068555 46.50739787 9.29278656 47.12890625 7.87890625 C47.42056671 7.21234009 47.71222717 6.54577393 48.01272583 5.85900879 C50.06783904 1.21341096 50.06783904 1.21341096 51.18359375 0.09765625 C54.04626942 0.02440457 56.88431275 0.0052742 59.74609375 0.03515625 C60.55240234 0.03966797 61.35871094 0.04417969 62.18945312 0.04882812 C64.18753131 0.06065107 66.18557158 0.07858711 68.18359375 0.09765625 C69.54764267 4.63175254 70.5985985 9.03148579 71.32861328 13.71972656 C71.52866974 14.9908429 71.7287262 16.26195923 71.93484497 17.57159424 C72.14552792 18.93963156 72.35604443 20.30769452 72.56640625 21.67578125 C72.78742915 23.09353561 73.00877848 24.51123911 73.23043823 25.92889404 C73.69201812 28.88707266 74.15063245 31.84569013 74.60693359 34.8046875 C75.19188548 38.59727534 75.78278749 42.38890592 76.37570381 46.18025589 C76.83219944 49.10186662 77.28632441 52.02384172 77.73965073 54.94594574 C77.95679074 56.34467957 78.17449191 57.7433264 78.39276505 59.14188385 C78.69659486 61.09195408 78.99705836 63.0425479 79.29736328 64.99316406 C79.4689798 66.10234192 79.64059631 67.21151978 79.81741333 68.35430908 C80.18359375 71.09765625 80.18359375 71.09765625 80.18359375 74.09765625 C77.37103094 74.12449937 74.55872134 74.14441813 71.74609375 74.16015625 C70.94365234 74.16853516 70.14121094 74.17691406 69.31445312 74.18554688 C67.27064154 74.19417055 65.22675473 74.14993775 63.18359375 74.09765625 C61.00673856 71.92080106 61.23950259 67.37101881 60.80859375 64.35546875 C60.6792041 63.47615692 60.54981445 62.59684509 60.41650391 61.69088745 C60.00160459 58.86870251 59.59216977 56.04576307 59.18359375 53.22265625 C58.77453373 50.40676772 58.36425779 47.59107761 57.95068359 44.77584839 C57.69304176 43.02114467 57.43807676 41.26604543 57.18603516 39.51052856 C57.06921387 38.71315277 56.95239258 37.91577698 56.83203125 37.09423828 C56.73067871 36.39332062 56.62932617 35.69240295 56.52490234 34.97024536 C56.18940835 32.88011235 56.18940835 32.88011235 55.18359375 30.09765625 C54.83320541 30.85814018 54.83320541 30.85814018 54.47573853 31.63398743 C52.0454545 36.90737964 49.61164717 42.17913508 47.17578125 47.44995117 C46.26699689 49.41763159 45.35911374 51.3857285 44.45214844 53.35424805 C43.14884991 56.18257696 41.84232486 59.00939554 40.53515625 61.8359375 C39.9272374 63.15794914 39.9272374 63.15794914 39.30703735 64.50666809 C38.92679413 65.32729233 38.5465509 66.14791656 38.15478516 66.9934082 C37.82169342 67.71510696 37.48860168 68.43680573 37.14541626 69.18037415 C36.18359375 71.09765625 36.18359375 71.09765625 34.18359375 74.09765625 C31.90820312 74.01708984 31.90820312 74.01708984 29.18359375 73.09765625 C27.71048392 70.82590493 26.65554642 68.84184157 25.58984375 66.38671875 C25.1188324 65.36256363 25.1188324 65.36256363 24.63830566 64.31771851 C23.63568015 62.1269288 22.65946485 59.92547443 21.68359375 57.72265625 C21.02775466 56.27786702 20.37021917 54.83384657 19.7109375 53.390625 C18.13677161 49.93485745 16.582657 46.4705563 15.03564453 43.00256348 C13.77419375 40.18237159 12.4949639 37.37035062 11.21484375 34.55859375 C10.81845703 33.6876709 10.42207031 32.81674805 10.01367188 31.91943359 C9.73974609 31.31824707 9.46582031 30.71706055 9.18359375 30.09765625 C8.5070323 34.13189552 7.83163866 38.16632858 7.15722656 42.20092773 C6.92868939 43.56718955 6.69985874 44.93340232 6.47070312 46.29956055 C6.13720549 48.28811331 5.80471832 50.27683205 5.47265625 52.265625 C5.36318665 52.91941132 5.25371704 53.57319763 5.14093018 54.24679565 C4.23012903 59.72492928 3.41186488 65.21477887 2.62646484 70.7121582 C2.18359375 73.09765625 2.18359375 73.09765625 1.18359375 74.09765625 C-1.51295479 74.17085246 -4.18332083 74.19008162 -6.87890625 74.16015625 C-7.63751953 74.15564453 -8.39613281 74.15113281 -9.17773438 74.14648438 C-11.05732496 74.13466305 -12.93687524 74.11672703 -14.81640625 74.09765625 C-15.12209928 65.97986972 -13.94288245 58.25336862 -12.6640625 50.25390625 C-12.44177401 48.83434454 -12.21997543 47.41470604 -11.99864197 45.99499512 C-11.53634646 43.03926274 -11.0694204 40.08431312 -10.59887695 37.12988281 C-9.9949735 33.33681592 -9.40093758 29.54228361 -8.81005192 25.74716949 C-8.35429965 22.82484614 -7.89439493 19.9031889 -7.43310356 16.98173523 C-7.21235319 15.58160617 -6.992681 14.18130669 -6.77409554 12.78083801 C-6.46945648 10.83436686 -6.15883383 8.88883498 -5.84790039 6.94335938 C-5.67247208 5.83577271 -5.49704376 4.72818604 -5.31629944 3.58703613 C-4.51543081 -0.40114833 -4.35276742 0.11138095 0 0 Z " fill="#1E2944" transform="translate(75.81640625,137.90234375)"/>
<path d="M0 0 C0.804375 0.36867187 1.60875 0.73734375 2.4375 1.1171875 C6.51635322 2.79527426 9.14877676 3.62598683 13.4375 1.9921875 C14.19160156 0.97898438 14.19160156 0.97898438 14.9609375 -0.0546875 C18.87110739 -3.1384177 22.86656106 -2.4333649 27.6875 -2.2578125 C28.62335938 -2.23976562 29.55921875 -2.22171875 30.5234375 -2.203125 C32.82917015 -2.15606923 35.13280945 -2.09034963 37.4375 -2.0078125 C36.04230404 8.83302044 29.78710159 18.12544977 22.4375 25.9921875 C19.4375 27.9921875 19.4375 27.9921875 16.75 27.6171875 C15.986875 27.4109375 15.22375 27.2046875 14.4375 26.9921875 C14.47875 27.9409375 14.52 28.8896875 14.5625 29.8671875 C14.4375 32.9921875 14.4375 32.9921875 12.4375 34.9921875 C9.8125 35.1171875 9.8125 35.1171875 7.4375 34.9921875 C7.1075 36.6421875 6.7775 38.2921875 6.4375 39.9921875 C4.9525 40.4871875 4.9525 40.4871875 3.4375 40.9921875 C2.7775 40.6621875 2.1175 40.3321875 1.4375 39.9921875 C0.4475 42.9621875 0.4475 42.9621875 -0.5625 45.9921875 C-2.2125 45.9921875 -3.8625 45.9921875 -5.5625 45.9921875 C-6.2225 47.3121875 -6.8825 48.6321875 -7.5625 49.9921875 C-10.70874993 50.25437499 -12.18087017 50.23973117 -14.875 48.4921875 C-15.431875 47.9971875 -15.98875 47.5021875 -16.5625 46.9921875 C-16.830625 47.5903125 -17.09875 48.1884375 -17.375 48.8046875 C-18.61896632 51.0962044 -19.43883118 52.4752812 -21.5625 53.9921875 C-24.625 54.3671875 -24.625 54.3671875 -27.5625 53.9921875 C-28.2225 53.0021875 -28.8825 52.0121875 -29.5625 50.9921875 C-30.5525 50.9921875 -31.5425 50.9921875 -32.5625 50.9921875 C-33.5525 50.9921875 -34.5425 50.9921875 -35.5625 50.9921875 C-36.2225 50.0021875 -36.8825 49.0121875 -37.5625 47.9921875 C-40.64615871 47.7419718 -40.64615871 47.7419718 -43.5625 47.9921875 C-44.0575 45.0221875 -44.0575 45.0221875 -44.5625 41.9921875 C-45.8825 41.6621875 -47.2025 41.3321875 -48.5625 40.9921875 C-48.5625 39.3421875 -48.5625 37.6921875 -48.5625 35.9921875 C-49.29726562 35.89164063 -50.03203125 35.79109375 -50.7890625 35.6875 C-55.59356565 34.48299076 -58.85891725 31.15846291 -62.5625 27.9921875 C-63.17480469 27.48816406 -63.78710938 26.98414063 -64.41796875 26.46484375 C-71.27124823 20.30159698 -76.59739415 10.69183815 -79.5625 1.9921875 C-79.5625 1.0021875 -79.5625 0.0121875 -79.5625 -1.0078125 C-65.71513416 -2.40920904 -65.71513416 -2.40920904 -59.5625 -1.0078125 C-56.5989438 1.66587762 -55.43564439 3.80292279 -53.9765625 7.48828125 C-52.76383179 10.27325369 -52.76383179 10.27325369 -49.69140625 11.01953125 C-46.04187936 10.98763776 -44.74977635 10.29459228 -41.875 8.1171875 C-36.55172882 4.16380821 -33.06435834 3.7857793 -26.5625 3.9921875 C-25.9025 4.3221875 -25.2425 4.6521875 -24.5625 4.9921875 C-24.5625 5.6521875 -24.5625 6.3121875 -24.5625 6.9921875 C-23.47710937 6.33089844 -22.39171875 5.66960937 -21.2734375 4.98828125 C-19.82864317 4.13453915 -18.38330149 3.28172288 -16.9375 2.4296875 C-15.86822266 1.77323242 -15.86822266 1.77323242 -14.77734375 1.10351562 C-9.17165093 -2.16218616 -6.14554273 -2.41699699 0 0 Z M-26.5625 18.9921875 C-26.5625 19.3221875 -26.5625 19.6521875 -26.5625 19.9921875 C-24.2525 19.9921875 -21.9425 19.9921875 -19.5625 19.9921875 C-19.5625 19.6621875 -19.5625 19.3321875 -19.5625 18.9921875 C-21.8725 18.9921875 -24.1825 18.9921875 -26.5625 18.9921875 Z M-23.5625 41.9921875 C-23.2325 42.6521875 -22.9025 43.3121875 -22.5625 43.9921875 C-22.2325 43.3321875 -21.9025 42.6721875 -21.5625 41.9921875 C-22.2225 41.9921875 -22.8825 41.9921875 -23.5625 41.9921875 Z " fill="#DEC852" transform="translate(218.5625,220.0078125)"/>
<path d="M0 0 C6.105 -0.0825 12.21 -0.165 18.5 -0.25 C20.41103516 -0.28641602 22.32207031 -0.32283203 24.29101562 -0.36035156 C25.82941571 -0.37204922 27.3678283 -0.38223849 28.90625 -0.390625 C29.68581055 -0.41108887 30.46537109 -0.43155273 31.26855469 -0.45263672 C38.00293592 -0.45686155 43.15906934 1.51047365 48.2421875 5.96484375 C48.78101563 6.61582031 49.31984375 7.26679688 49.875 7.9375 C50.70644531 8.91009766 50.70644531 8.91009766 51.5546875 9.90234375 C56.3449896 16.85475518 55.63225719 24.92656206 55 33 C53.40295229 39.67121196 48.60885099 44.30636642 43 48 C34.84972629 52.11895553 25.86605476 51.22540817 17 51 C17 58.59 17 66.18 17 74 C11.39 74 5.78 74 0 74 C0 49.58 0 25.16 0 0 Z M17 15 C17 21.6 17 28.2 17 35 C19.371875 35.0825 21.74375 35.165 24.1875 35.25 C25.29387817 35.30462402 25.29387817 35.30462402 26.42260742 35.36035156 C30.02641563 35.42069892 31.87966133 35.07776224 34.92578125 33.109375 C37.79840132 30.18806645 37.96789529 29.39167741 38.3125 25.1875 C38.28232024 21.86772673 38.0060988 21.00955479 36.125 18.0625 C32.42523426 14.4715509 29.26773519 14.87926542 24.375 14.9375 C21.94125 14.958125 19.5075 14.97875 17 15 Z " fill="#1E2844" transform="translate(240,138)"/>
<path d="M0 0 C6.27 0 12.54 0 19 0 C23.34601428 10.11614624 27.10561884 20.38639231 30.8125 30.75 C32.854375 36.4425 34.89625 42.135 37 48 C42.61 32.16 48.22 16.32 54 0 C60.27 0 66.54 0 73 0 C68.50163883 13.01353571 63.83343595 25.93545556 58.91064453 38.79394531 C57.86529339 41.52536257 56.82495115 44.25865089 55.78515625 46.9921875 C52.32860138 56.05819854 48.79921333 65.07110952 45 74 C39.72 74 34.44 74 29 74 C22.44800474 58.18530873 16.13202208 42.29439021 10 26.3125 C9.67353485 25.46170868 9.3470697 24.61091736 9.01071167 23.73434448 C5.98073043 15.83244551 2.97155525 7.92414734 0 0 Z " fill="#1E2944" transform="translate(159,138)"/>
<path d="M0 0 C4.07885322 1.67808676 6.71127676 2.50879933 11 0.875 C11.50273437 0.19953125 12.00546875 -0.4759375 12.5234375 -1.171875 C16.43360739 -4.2556052 20.42906106 -3.5505524 25.25 -3.375 C26.18585938 -3.35695312 27.12171875 -3.33890625 28.0859375 -3.3203125 C30.39167015 -3.27325673 32.69530945 -3.20753713 35 -3.125 C33.60480404 7.71583294 27.34960159 17.00826227 20 24.875 C17 26.875 17 26.875 14.61914062 26.67236328 C11.78824485 25.8105339 9.61478824 24.66292997 7.09375 23.1171875 C6.18496094 22.57449219 5.27617187 22.03179687 4.33984375 21.47265625 C2.44314166 20.32211207 0.54990815 19.16583073 -1.33984375 18.00390625 C-2.24863281 17.46378906 -3.15742188 16.92367187 -4.09375 16.3671875 C-4.91552734 15.86558105 -5.73730469 15.36397461 -6.58398438 14.84716797 C-9.55599453 13.65127625 -10.97736005 13.92627473 -14 14.875 C-15.6396875 15.6484375 -15.6396875 15.6484375 -17.3125 16.4375 C-21.82132793 18.19517869 -24.19639831 18.40873352 -29 17.875 C-31.29561506 16.7491251 -32.9844168 15.48746656 -35 13.875 C-34.80737305 12.0793457 -34.80737305 12.0793457 -34 9.875 C-30.54758727 7.17853228 -26.6353172 5.19092949 -22.8125 3.0625 C-21.77029297 2.45212891 -20.72808594 1.84175781 -19.65429688 1.21289062 C-18.64044922 0.64119141 -17.62660156 0.06949219 -16.58203125 -0.51953125 C-15.65624268 -1.04393799 -14.7304541 -1.56834473 -13.77661133 -2.10864258 C-8.75258067 -3.94765072 -4.65599353 -2.13399703 0 0 Z " fill="#1E2944" transform="translate(221,221.125)"/>
<path d="M0 0 C1.84375 0.79296875 1.84375 0.79296875 3.09375 2.85546875 C3.34125 3.49484375 3.58875 4.13421875 3.84375 4.79296875 C5.49375 4.79296875 7.14375 4.79296875 8.84375 4.79296875 C9.17375 6.11296875 9.50375 7.43296875 9.84375 8.79296875 C10.6275 8.89609375 11.41125 8.99921875 12.21875 9.10546875 C14.84375 9.79296875 14.84375 9.79296875 16.84375 12.79296875 C19.40657742 13.52262241 19.40657742 13.52262241 21.84375 13.79296875 C22.65625 15.98046875 22.65625 15.98046875 22.84375 18.79296875 C20.33252771 22.21736278 18.89454668 23.6281379 14.65625 24.29296875 C13.728125 24.12796875 12.8 23.96296875 11.84375 23.79296875 C11.18375 22.80296875 10.52375 21.81296875 9.84375 20.79296875 C8.85375 20.79296875 7.86375 20.79296875 6.84375 20.79296875 C5.85375 20.79296875 4.86375 20.79296875 3.84375 20.79296875 C3.18375 19.80296875 2.52375 18.81296875 1.84375 17.79296875 C-1.23990871 17.54275305 -1.23990871 17.54275305 -4.15625 17.79296875 C-4.48625 15.81296875 -4.81625 13.83296875 -5.15625 11.79296875 C-6.47625 11.46296875 -7.79625 11.13296875 -9.15625 10.79296875 C-9.59375 8.66796875 -9.59375 8.66796875 -9.15625 5.79296875 C-4.01245462 -0.3852538 -4.01245462 -0.3852538 0 0 Z " fill="#1E2945" transform="translate(179.15625,250.20703125)"/>
</svg>
