<?xml version="1.0" encoding="UTF-8"?>
<svg viewBox="0 0 187.69 90.94" xmlns="http://www.w3.org/2000/svg">
<title>sqltutorial</title>
<path transform="translate(-191.18 -375.28)" d="M291.84,417.92a3.83,3.83,0,0,0-.73-2.42,5.37,5.37,0,0,0-2-1.51,14.35,14.35,0,0,0-2.82-.95c-1.05-.25-2.15-.48-3.3-.72a42,42,0,0,1-4.36-1.19,12.16,12.16,0,0,1-3.67-1.9,8.89,8.89,0,0,1-2.52-3.09,10.5,10.5,0,0,1-.93-4.69,12.57,12.57,0,0,1,1.08-5.4,10.46,10.46,0,0,1,3-3.81A12.47,12.47,0,0,1,279.9,390a19.66,19.66,0,0,1,5.64-.74,33,33,0,0,1,6.3.61,27.81,27.81,0,0,1,5.45,1.58v6.15a33,33,0,0,0-5.85-1.74,27.69,27.69,0,0,0-5.25-.54,9.76,9.76,0,0,0-5.47,1.29,4.35,4.35,0,0,0-1.92,3.87,4.45,4.45,0,0,0,.63,2.46,5,5,0,0,0,1.72,1.59,10,10,0,0,0,2.49,1c.93.26,1.93.49,3,.71,1.66.35,3.25.75,4.77,1.21a14.11,14.11,0,0,1,4,1.92,8.77,8.77,0,0,1,2.79,3.21,11,11,0,0,1,1,5.05,12,12,0,0,1-1.17,5.48,10.29,10.29,0,0,1-3.32,3.83,15.32,15.32,0,0,1-5.23,2.24,29.07,29.07,0,0,1-6.74.73,31.43,31.43,0,0,1-6.29-.63,18,18,0,0,1-5.14-1.77v-6.07a29,29,0,0,0,5.66,1.83,27.92,27.92,0,0,0,5.68.57,20.53,20.53,0,0,0,3.34-.27,10.16,10.16,0,0,0,2.94-1,5.57,5.57,0,0,0,2.1-1.83A4.91,4.91,0,0,0,291.84,417.92Z" fill="#399cd7"/>
<path transform="translate(-191.18 -375.28)" d="M336.21,424.16a15.59,15.59,0,0,1,1.67-.38c.62-.12,1.27-.22,1.94-.3s1.35-.13,2-.17,1.34-.06,2-.06h.56v6.24q-1.56-.15-3.75-.24c-1.47-.05-3-.08-4.66-.08-1.23,0-2.33,0-3.31.08l-3,.2-3.07.19c-1.07.05-2.1.08-3.12.08a20.93,20.93,0,0,1-8.12-1.46,16.25,16.25,0,0,1-5.91-4.13,17.63,17.63,0,0,1-3.64-6.37,25.88,25.88,0,0,1-1.23-8.19,25.31,25.31,0,0,1,1.28-8.22,18.21,18.21,0,0,1,3.72-6.43,16.73,16.73,0,0,1,6-4.19,22.76,22.76,0,0,1,16.2,0,16.87,16.87,0,0,1,6,4.16,18,18,0,0,1,3.72,6.34,24.38,24.38,0,0,1,1.28,8,22.64,22.64,0,0,1-.44,4.46,19.66,19.66,0,0,1-1.28,4,17,17,0,0,1-2.09,3.5,14.08,14.08,0,0,1-2.87,2.8Zm-.8-14.59a20.31,20.31,0,0,0-.87-6.26,13,13,0,0,0-2.44-4.47,9.6,9.6,0,0,0-3.69-2.66,12.91,12.91,0,0,0-9.37,0,9.6,9.6,0,0,0-3.69,2.66,13,13,0,0,0-2.44,4.47,22.92,22.92,0,0,0,0,12.51,12.72,12.72,0,0,0,2.44,4.46,9.81,9.81,0,0,0,3.69,2.66,12.78,12.78,0,0,0,9.37,0,9.81,9.81,0,0,0,3.69-2.66,12.72,12.72,0,0,0,2.44-4.46A20.25,20.25,0,0,0,335.41,409.57Z" fill="#399cd7"/>
<path transform="translate(-191.18 -375.28)" d="M358.77,390v33.19h18.34v6H351.59V390Z" fill="#399cd7"/>
<path transform="translate(-191.18 -375.28)" d="m278.49 453.78h-1.91v-14h-5.24v-1.68h12.39v1.72h-5.24z" fill="#716e6f"/>
<path transform="translate(-191.18 -375.28)" d="M292.53,452.37a5,5,0,0,0,1.52-.2,3.63,3.63,0,0,0,1.15-.56,3.08,3.08,0,0,0,.82-.87,4.29,4.29,0,0,0,.51-1.13,4.38,4.38,0,0,0,.16-.86c0-.32.05-.63.05-.92V438.1h1.91v9.68c0,.37,0,.75-.06,1.15a7.12,7.12,0,0,1-.19,1.11,6,6,0,0,1-.66,1.61,4.67,4.67,0,0,1-1.16,1.27,5.64,5.64,0,0,1-1.72.85,8.23,8.23,0,0,1-2.35.3,8.07,8.07,0,0,1-2.26-.28,5.49,5.49,0,0,1-1.67-.78,4.12,4.12,0,0,1-1.14-1.18,6.05,6.05,0,0,1-.7-1.5,7.68,7.68,0,0,1-.25-1.25,11.7,11.7,0,0,1-.07-1.3V438.1h1.91v9.73a8,8,0,0,0,.07,1.08,4.82,4.82,0,0,0,.24,1,3.64,3.64,0,0,0,1.37,1.8A4.42,4.42,0,0,0,292.53,452.37Z" fill="#716e6f"/>
<path transform="translate(-191.18 -375.28)" d="m308.48 453.78h-1.91v-14h-5.24v-1.68h12.39v1.72h-5.24z" fill="#716e6f"/>
<path transform="translate(-191.18 -375.28)" d="M329.75,446a10,10,0,0,1-.51,3.27,7.64,7.64,0,0,1-1.47,2.57,6.64,6.64,0,0,1-2.3,1.68,7.24,7.24,0,0,1-3,.6,7.56,7.56,0,0,1-3.08-.6,6.38,6.38,0,0,1-2.3-1.68,7.42,7.42,0,0,1-1.44-2.57,10,10,0,0,1-.5-3.27,10.18,10.18,0,0,1,.51-3.29,7.81,7.81,0,0,1,1.47-2.57,6.51,6.51,0,0,1,2.29-1.68,7.38,7.38,0,0,1,3-.6,7.46,7.46,0,0,1,3.06.6,6.55,6.55,0,0,1,2.3,1.68,7.75,7.75,0,0,1,1.44,2.57A10.46,10.46,0,0,1,329.75,446Zm-1.9,0a8.52,8.52,0,0,0-.42-2.79,5.62,5.62,0,0,0-1.14-2,4.86,4.86,0,0,0-1.72-1.23,5.71,5.71,0,0,0-4.25,0,4.86,4.86,0,0,0-1.72,1.23,5.94,5.94,0,0,0-1.14,2A8.52,8.52,0,0,0,317,446a8.38,8.38,0,0,0,.42,2.78,5.92,5.92,0,0,0,1.15,2,4.71,4.71,0,0,0,1.72,1.22,5.41,5.41,0,0,0,2.14.41,5.26,5.26,0,0,0,2.11-.41,4.68,4.68,0,0,0,1.71-1.22,5.45,5.45,0,0,0,1.14-2A8.38,8.38,0,0,0,327.85,446Z" fill="#716e6f"/>
<path transform="translate(-191.18 -375.28)" d="M335.31,447.29v6.49H333.4V438.1h4.06a14.61,14.61,0,0,1,1.75.08,8.18,8.18,0,0,1,1.32.24,4.67,4.67,0,0,1,2.5,1.51,4.13,4.13,0,0,1,.87,2.68,4.37,4.37,0,0,1-.31,1.7,4,4,0,0,1-.85,1.3,4.41,4.41,0,0,1-1.32.9,6.71,6.71,0,0,1-1.71.52v.05l4.64,6.7h-1.91l-4.82-6.49Zm0-7.47v5.74h1.88c.59,0,1.09,0,1.5-.05a5.05,5.05,0,0,0,1.12-.22,3,3,0,0,0,1.53-1,2.68,2.68,0,0,0,.54-1.74,2.58,2.58,0,0,0-.51-1.63,2.79,2.79,0,0,0-1.4-.88,5.05,5.05,0,0,0-1-.19c-.39,0-.88-.06-1.48-.06Z" fill="#716e6f"/>
<path transform="translate(-191.18 -375.28)" d="M347.61,453.78V438.1h1.91v15.68Z" fill="#716e6f"/>
<path transform="translate(-191.18 -375.28)" d="M352.2,453.78l6.39-15.68h1.65l6.39,15.68h-2.08l-1.87-4.72h-6.55l-1.88,4.72Zm7.2-13.24q-1,2.93-2,5.32l-.58,1.47H362l-.59-1.47c-.64-1.62-1.3-3.4-2-5.32Z" fill="#716e6f"/>
<path transform="translate(-191.18 -375.28)" d="M371.22,438.1v14h7.65v1.72h-9.56V438.1Z" fill="#716e6f"/>
<polygon points="0 19.64 34.79 0 69.37 19.64 69.37 70.66 34.69 90.94 0 70.87" fill="#f05523"/>
<polygon points="14.73 28.18 34.79 16.65 54.64 28.18 54.64 39.92 34.69 28.28 25.19 33.73 54.64 51.27 54.64 62.33 34.79 74.5 14.73 62.33 14.73 51.27 34.69 62.76 44.19 56.57 14.73 39.49" fill="#fff"/>
</svg>
